<svg width="50" height="32" viewBox="0 0 50 32" fill="none" xmlns="http://www.w3.org/2000/svg">
  <path d="M49.9897 4.15166C49.9897 5.47528 48.9124 6.55264 47.5888 6.55264H14.5496C13.2259 6.55264 12.1486 5.47528 12.1486 4.15166C12.1486 2.82804 13.2259 1.75067 14.5496 1.75067H47.599C48.9226 1.76093 49.9897 2.82804 49.9897 4.15166ZM47.599 13.653H14.5496C13.2259 13.653 12.1486 14.7304 12.1486 16.054C12.1486 17.3776 13.2259 18.455 14.5496 18.455H47.599C48.9226 18.455 50 17.3776 50 16.054C49.9897 14.7304 48.9226 13.653 47.599 13.653ZM47.599 25.5553H14.5496C13.2259 25.5553 12.1486 26.6327 12.1486 27.9563C12.1486 29.2799 13.2259 30.3573 14.5496 30.3573H47.599C48.9226 30.3573 50 29.2799 50 27.9563C49.9897 26.6327 48.9226 25.5553 47.599 25.5553ZM3.99138 0.160278C1.78535 0.160278 0 1.94563 0 4.15166C0 6.35769 1.78535 8.1533 3.99138 8.1533C6.19741 8.1533 7.98276 6.35769 7.98276 4.15166C7.98276 1.94563 6.19741 0.160278 3.99138 0.160278ZM3.99138 12.0626C1.78535 12.0626 0 13.8479 0 16.054C0 18.26 1.78535 20.0454 3.99138 20.0454C6.19741 20.0454 7.98276 18.26 7.98276 16.054C7.98276 13.8479 6.19741 12.0626 3.99138 12.0626ZM3.99138 23.9649C1.78535 23.9649 0 25.7503 0 27.9563C0 30.1623 1.78535 31.9477 3.99138 31.9477C6.19741 31.9477 7.98276 30.1623 7.98276 27.9563C7.98276 25.7503 6.19741 23.9649 3.99138 23.9649Z" fill="#535353"/>
</svg>
