<?xml version="1.0" encoding="UTF-8"?>
<svg version="1.1" xmlns="http://www.w3.org/2000/svg" width="67" height="65">
  <path d="M0 0 C2.32754182 0.37162432 4.66083749 0.7103894 7 1 C7.14648406 4.83292441 7.23446464 8.66511953 7.3125 12.5 C7.35439453 13.57765625 7.39628906 14.6553125 7.43945312 15.765625 C7.56838295 24.22342174 5.7971805 28.91609362 0.0859375 35.05859375 C-0.76097656 35.74115234 -0.76097656 35.74115234 -1.625 36.4375 C-2.19476563 36.91058594 -2.76453125 37.38367187 -3.3515625 37.87109375 C-7.07633565 40.4219455 -10.63339587 40.29110694 -15 40 C-21.7321068 37.99217867 -25.52802773 34.13409134 -29.05297852 28.23901367 C-30.20673333 25.51122678 -30.3196712 23.31696893 -30.4140625 20.359375 C-30.45273437 19.28945313 -30.49140625 18.21953125 -30.53125 17.1171875 C-30.5621875 16.00601563 -30.593125 14.89484375 -30.625 13.75 C-30.66367187 12.62335937 -30.70234375 11.49671875 -30.7421875 10.3359375 C-30.83637336 7.55745452 -30.92199586 4.77897666 -31 2 C-29.948125 1.71511719 -28.89625 1.43023437 -27.8125 1.13671875 C-24.70247218 0.20944611 -21.93999356 -0.84806214 -19 -2.1875 C-11.67289824 -5.15824625 -6.99413413 -2.99748605 0 0 Z " fill="#6B9F35" transform="translate(48,16)"/>
  <path d="M0 0 C0.33 0.66 0.66 1.32 1 2 C-1.475 1.505 -1.475 1.505 -4 1 C-4.04125 2.093125 -4.0825 3.18625 -4.125 4.3125 C-4.558125 6.1378125 -4.558125 6.1378125 -5 8 C-7.75 9.5625 -7.75 9.5625 -11 11 C-14.38692605 13.94515309 -15.8204891 15.35031755 -16.30859375 19.8359375 C-16.31211541 22.57578645 -16.21863238 25.26952452 -16 28 C-15.21625 27.505 -14.4325 27.01 -13.625 26.5 C-11 25 -11 25 -9 25 C-9.20625 23.906875 -9.4125 22.81375 -9.625 21.6875 C-10 18 -10 18 -8 15 C-5.5625 14.5625 -5.5625 14.5625 -3 15 C-1.125 16.625 -1.125 16.625 0 19 C-0.3125 22.25 -0.3125 22.25 -1 25 C0.65 25.66 2.3 26.32 4 27 C3.375 28.8125 3.375 28.8125 2 31 C0.989375 31.4125 -0.02125 31.825 -1.0625 32.25 C-4.12492347 33.63158224 -4.12492347 33.63158224 -4.61328125 35.96484375 C-4.84901918 37.96685693 -4.93394223 39.9852381 -5 42 C-3.68 42.33 -2.36 42.66 -1 43 C-6.50150017 43.33682654 -10.17723327 42.7182867 -15 40 C-20.17577292 35.08538993 -23.1830751 30.59698027 -23.4140625 23.359375 C-23.45273437 22.28945313 -23.49140625 21.21953125 -23.53125 20.1171875 C-23.5621875 19.00601563 -23.593125 17.89484375 -23.625 16.75 C-23.66367187 15.62335937 -23.70234375 14.49671875 -23.7421875 13.3359375 C-23.83637336 10.55745452 -23.92199586 7.77897666 -24 5 C-22.948125 4.71511719 -21.89625 4.43023437 -20.8125 4.13671875 C-17.70247218 3.20944611 -14.93999356 2.15193786 -12 0.8125 C-7.44977563 -1.0562181 -4.71711579 -1.40509832 0 0 Z " fill="#81B549" transform="translate(41,13)"/>
  <path d="M0 0 C4.33440466 1.50964902 6.97837817 4.84011833 9.17578125 8.7578125 C9.72673291 11.69125785 9.55162158 13.75108985 9.17578125 16.7578125 C6.12314461 17.73901714 4.22841789 17.73901714 1.17578125 16.7578125 C1.21703125 15.8296875 1.25828125 14.9015625 1.30078125 13.9453125 C1.44714464 10.59971531 1.44714464 10.59971531 -0.82421875 7.7578125 C-3.38704617 7.02815884 -3.38704617 7.02815884 -5.82421875 6.7578125 C-6.57849172 11.73687509 -6.57849172 11.73687509 -6.82421875 16.7578125 C-11.04644097 19.7578125 -11.04644097 19.7578125 -13.82421875 19.7578125 C-15.08721321 15.96882911 -15.69663492 12.66291346 -14.82421875 8.7578125 C-10.9125131 2.81857355 -7.46754102 -1.06484131 0 0 Z " fill="#6B9F36" transform="translate(38.82421875,21.2421875)"/>
  <path d="M0 0 C2.4375 -0.4375 2.4375 -0.4375 5 0 C6.875 1.625 6.875 1.625 8 4 C7.6875 7.25 7.6875 7.25 7 10 C9.475 10.99 9.475 10.99 12 12 C11.05275873 14.36810318 10.34708866 15.75207953 8.25 17.25 C5.30105496 18.23298168 3.09574059 18.3158919 0 18 C-2.875 16.5 -2.875 16.5 -5 15 C-4.6875 13.0625 -4.6875 13.0625 -4 11 C-3.01 10.67 -2.02 10.34 -1 10 C-1.20625 8.906875 -1.4125 7.81375 -1.625 6.6875 C-2 3 -2 3 0 0 Z " fill="#D9E8EC" transform="translate(33,28)"/>
  <path d="M0 0 C3.03038047 -0.29309379 4.51377633 -0.35361722 7.01953125 1.46875 C12.45490546 7.62647241 12.45490546 7.62647241 12.4375 12.5 C12.293125 13.655 12.14875 14.81 12 16 C8.94736336 16.98120464 7.05263664 16.98120464 4 16 C4.0825 15.13375 4.165 14.2675 4.25 13.375 C3.94248208 9.22350811 2.34395287 7.36943225 0 4 C0 2.68 0 1.36 0 0 Z " fill="#608F31" transform="translate(36,22)"/>
  <path d="M0 0 C2.3125 -0.25 2.3125 -0.25 5 0 C6.875 1.625 6.875 1.625 8 4 C7.6875 7.25 7.6875 7.25 7 10 C9.475 10.99 9.475 10.99 12 12 C11.05275873 14.36810318 10.34708866 15.75207953 8.25 17.25 C5.42246362 18.19251213 2.96006696 18.1345485 0 18 C1.32 17.67 2.64 17.34 4 17 C4 11.72 4 6.44 4 1 C2.68 0.67 1.36 0.34 0 0 Z " fill="#BED1D0" transform="translate(33,28)"/>
  <path d="M0 0 C0.33 0.66 0.66 1.32 1 2 C-1.475 1.505 -1.475 1.505 -4 1 C-4.33 1.99 -4.66 2.98 -5 4 C-5 3.01 -5 2.02 -5 1 C-6.08667969 1.433125 -6.08667969 1.433125 -7.1953125 1.875 C-8.64550781 2.431875 -8.64550781 2.431875 -10.125 3 C-11.55199219 3.556875 -11.55199219 3.556875 -13.0078125 4.125 C-16.15433296 5.04513131 -18.74025404 5.15476539 -22 5 C-21.89000392 8.75059803 -21.75940131 12.50020344 -21.625 16.25 C-21.57859375 17.84521484 -21.57859375 17.84521484 -21.53125 19.47265625 C-21.49257813 20.49746094 -21.45390625 21.52226563 -21.4140625 22.578125 C-21.3826416 23.52075195 -21.3512207 24.46337891 -21.31884766 25.43457031 C-21.14493873 28.01430391 -21.14493873 28.01430391 -19.91162109 30.15136719 C-19 32 -19 32 -20 35 C-23.78465993 29.21647142 -23.54827484 23.37940936 -23.6875 16.625 C-23.72166016 15.50738281 -23.75582031 14.38976562 -23.79101562 13.23828125 C-23.87316073 10.49228778 -23.94242128 7.74660018 -24 5 C-22.948125 4.71511719 -21.89625 4.43023437 -20.8125 4.13671875 C-17.70247218 3.20944611 -14.93999356 2.15193786 -12 0.8125 C-7.44977563 -1.0562181 -4.71711579 -1.40509832 0 0 Z " fill="#BDD8A1" transform="translate(41,13)"/>
  <path d="M0 0 C2.31 0 4.62 0 7 0 C7.11693501 3.85390817 7.1874962 7.70735512 7.25 11.5625 C7.28351562 12.64853516 7.31703125 13.73457031 7.3515625 14.85351562 C7.43241454 21.50359588 6.95054559 25.57966482 3 31 C2 28 2 28 2.91162109 26.13769531 C3.27078613 25.43225586 3.62995117 24.72681641 4 24 C4.36254806 21.49034037 4.36254806 21.49034037 4.4140625 18.796875 C4.47207031 17.32734375 4.47207031 17.32734375 4.53125 15.828125 C4.5621875 14.81234375 4.593125 13.7965625 4.625 12.75 C4.66367187 11.71875 4.70234375 10.6875 4.7421875 9.625 C4.83631674 7.0835106 4.92194979 4.54202567 5 2 C3.35 2 1.7 2 0 2 C0 1.34 0 0.68 0 0 Z " fill="#93BA6B" transform="translate(48,17)"/>
  <path d="M0 0 C0.33 0.66 0.66 1.32 1 2 C-0.65 1.67 -2.3 1.34 -4 1 C-4.33 1.99 -4.66 2.98 -5 4 C-5 3.01 -5 2.02 -5 1 C-6.98 1.66 -8.96 2.32 -11 3 C-11 2.34 -11 1.68 -11 1 C-7.23822458 -1.55800728 -4.30753844 -0.97529172 0 0 Z " fill="#AACC89" transform="translate(41,13)"/>
</svg>
