<?xml version="1.0" encoding="UTF-8"?>
<svg version="1.1" xmlns="http://www.w3.org/2000/svg" width="79" height="67">
  <path d="M0 0 C4.21 2.78 6.4 5.19 8 10 C8.85 17.14 8.98 23.48 4.56 29.41 C0.82 33.22 -3.65 35.48 -9 36 C-10.26 36.14 -11.52 36.29 -12.81 36.44 C-18.06 36.37 -21.37 33.55 -25 30 C-29.5 24.6 -30.35 19.66 -30.28 12.79 C-29.75 7.5 -27.43 4.39 -23.62 0.69 C-15.76 -4.37 -8.11 -4.28 0 0 Z " fill="#89BF4B" transform="translate(53,20)"/>
  <path d="M0 0 C0.66 0.33 1.32 0.66 2 1 C2.26 8.17 2.41 14.36 -2.62 19.88 C-6.47 22.3 -9.54 23.37 -14 24 C-14.66 24.11 -15.33 24.21 -16.01 24.32 C-21.39 24.8 -24.25 22.88 -28.34 19.51 C-29.59 18.37 -30.8 17.2 -32 16 C-31.75 13.94 -31.75 13.94 -31 12 C-30.34 11.67 -29.68 11.34 -29 11 C-28.63 11.76 -28.26 12.53 -27.88 13.31 C-25.54 16.67 -23.84 17.62 -20 19 C-14.62 19.78 -10.61 19.04 -6 16 C-1.14 11.68 -0.82 6.14 0 0 Z " fill="#79A44E" transform="translate(58,32)"/>
  <path d="M0 0 C-0.99 0.5 -0.99 0.5 -2 1 C-2.66 0.67 -3.32 0.34 -4 0 C-5.87 -0.07 -7.75 -0.08 -9.62 -0.06 C-11.13 -0.05 -11.13 -0.05 -12.66 -0.04 C-13.43 -0.02 -14.21 -0.01 -15 0 C-15.66 1.98 -16.32 3.96 -17 6 C-19.31 6 -21.62 6 -24 6 C-24.66 7.65 -25.32 9.3 -26 11 C-26.66 11 -27.32 11 -28 11 C-27.67 15.95 -27.34 20.9 -27 26 C-30.11 22.89 -30.2 19.97 -30.31 15.75 C-30.25 10.23 -29.32 7.4 -26 3 C-18.28 -4.51 -9.13 -4.57 0 0 Z " fill="#8CBB55" transform="translate(53,20)"/>
  <path d="M0 0 C0.33 0.66 0.66 1.32 1 2 C1.66 1.67 2.32 1.34 3 1 C5.33 0.96 7.67 0.96 10 1 C10.33 2.98 10.66 4.96 11 7 C10.01 7 9.02 7 8 7 C8 7.99 8 8.98 8 10 C7.01 10 6.02 10 5 10 C5 9.01 5 8.02 5 7 C4.01 7 3.02 7 2 7 C2 5.68 2 4.36 2 3 C1.34 3 0.68 3 0 3 C0 2.01 0 1.02 0 0 Z " fill="#92C258" transform="translate(36,31)"/>
  <path d="M0 0 C-0.99 0.5 -0.99 0.5 -2 1 C-2.66 0.67 -3.32 0.34 -4 0 C-11.31 -0.82 -19.19 0.33 -25.29 4.61 C-25.86 5.07 -26.42 5.53 -27 6 C-25.49 1.78 -22.79 0.2 -19 -2 C-12.35 -4.66 -6.08 -3.04 0 0 Z " fill="#CBE2AD" transform="translate(53,20)"/>
  <path d="M0 0 C0.66 1.32 1.32 2.64 2 4 C1.01 4.5 1.01 4.5 0 5 C0.33 9.95 0.66 14.9 1 20 C-2.19 16.81 -2.16 13.88 -2.19 9.56 C-2.2 8.62 -2.22 7.67 -2.23 6.69 C-2 3.95 -1.4 2.34 0 0 Z " fill="#A0C17A" transform="translate(25,26)"/>
  <path d="M0 0 C0.33 0.99 0.66 1.98 1 3 C2.32 3 3.64 3 5 3 C5 3.66 5 4.32 5 5 C4.01 5 3.02 5 2 5 C2 5.99 2 6.98 2 8 C1.01 8 0.02 8 -1 8 C-1 7.01 -1 6.02 -1 5 C-1.99 5 -2.98 5 -4 5 C-4 4.34 -4 3.68 -4 3 C-2.68 3 -1.36 3 0 3 C0 2.01 0 1.02 0 0 Z " fill="#BDE396" transform="translate(42,33)"/>
  <path d="M0 0 C4.13 0.61 7.33 2.04 11 4 C11 4.99 11 5.98 11 7 C10.46 6.55 9.93 6.09 9.38 5.62 C6.99 3.84 6.99 3.84 3.81 2.94 C2.88 2.63 1.96 2.32 1 2 C0.67 1.34 0.34 0.68 0 0 Z " fill="#A2C37C" transform="translate(46,19)"/>
  <path d="M0 0 C1.65 0 3.3 0 5 0 C5 0.66 5 1.32 5 2 C6.98 2 8.96 2 11 2 C11 2.33 11 2.66 11 3 C3.49 3.37 3.49 3.37 1 1.5 C0.67 1.01 0.34 0.51 0 0 Z " fill="#91AF6F" transform="translate(33,53)"/>
</svg>
